<?xml version="1.0" standalone="no"?>
<svg viewBox="-900 -300 2600 2600" style="width: 585px; height: 585px; justify-content: center; align-self: center; transform: scale(1, 1);" xmlns="http://www.w3.org/2000/svg"><rect x="-900" y="-300" width="100%" height="100%" fill="#5b0e2d" rx="30"></rect><g transform="rotate(2 580.4699096679688 994.9954357147217)"><g transform="translate(-172 456)"><path d="M667.834 1592.07C684.941 1595.67 702.504 1597.49 720.033 1597.49C748.379 1597.49 776.183 1592.81 802.671 1583.59L802.926 1583.5L803.187 1583.43C818.41 1579.6 836.335 1570.2 842.065 1557.81C844.741 1552.02 844.464 1546.12 841.221 1539.77L840.099 1537.57L840.891 1535.23C852.961 1499.72 782.781 1459.29 736.342 1432.53C722.147 1424.35 709.889 1417.29 701.673 1411.43L689.373 1402.66L704.437 1400.78C707.274 1400.42 708.618 1397.62 708.497 1395.73C708.312 1392.85 704.95 1392.24 702.163 1392.24C699.022 1392.24 693.433 1393.09 684.633 1397.12L681.547 1398.54L678.73 1396.66C674.363 1393.73 669.82 1390.56 664.841 1386.96L652.539 1378.07L667.695 1376.33C728.932 1369.29 848.992 1353 965.062 1323.03C1091.29 1290.44 1179.9 1250.67 1228.45 1204.8L1228.59 1204.67C1267 1170.71 1292.26 1117.91 1292.95 1070.14C1293.44 1036.34 1281.56 1007.05 1258.61 985.415C1225.68 961.591 1181.04 950.007 1122.17 950.007C1080.07 950.007 1036.51 955.609 994.391 961.027C966.669 964.593 940.484 967.962 916.253 969.525L910.747 969.881L909.928 964.506C899.559 896.507 896.631 826.945 893.798 759.674C891.115 695.941 888.341 630.037 879.22 565.75C863.14 442.82 844.91 303.483 800.568 174.123C792.301 151.555 781.368 136.747 766.163 127.52C752.042 118.95 733.644 114.959 708.265 114.959C707.618 114.959 706.176 114.968 706.176 114.968L706.033 114.962C695.591 114.553 684.803 113.632 674.371 112.741C660.525 111.56 646.209 110.338 632.826 110.338C631.191 110.338 629.57 110.356 627.908 110.394C622.144 110.487 617.602 111.311 614.019 112.912L608.479 115.388L606.043 109.895C603.675 104.555 601.557 98.8243 599.749 92.8599L599.496 92.0264L599.501 89.927L599.501 89.8809C599.52 82.3722 599.54 74.6095 598.924 67.1157C596.859 42.0207 588.527 24.5649 573.451 13.7514C560.475 4.44423 542.716 0.0768455 517.561 0.00492599L514.736 0C495.061 0 474.732 0.959584 461.341 12.4214C454.283 18.4626 450.024 28.159 449.657 39.0247C449.512 43.3153 449.935 47.7368 450.321 51.1092L450.46 52.321L450.1 53.4874C438.831 90.0777 421.66 114.897 397.606 129.362L396.16 130.231L393.544 130.227C265.203 130.227 162.696 189.665 104.907 297.593L104.722 297.94L104.49 298.26C93.228 313.866 82.396 330.631 72.289 348.095C70.949 350.926 69.187 353.799 67.324 356.835C59.439 369.69 57.613 375.066 63.081 379.634L66.284 382.308L64.83 386.189C54.199 414.566 44.22 443.737 34.568 471.947C30.266 484.521 25.819 497.521 21.367 510.295C20.072 514.764 18.3 519.252 16.585 523.594L16.5836 523.597C12.8312 533.1 9.28716 542.075 10.355 550.66L10.478 551.65L10.266 552.625C8.28802 561.668 9.05102 570.492 12.358 576.836L12.644 577.384L12.808 577.979C14.855 585.353 22.793 609.934 39.001 616.593L39.987 616.998L40.77 617.715C52.079 628.044 67.183 636.516 86.946 643.618L92.643 645.665L90.505 651.256C44.747 770.863 26.746 896.973 9.48702 1037.65C2.02602 1091.93 -4.46198 1155.56 3.98802 1215.91C13.266 1282.16 38.8 1332.01 82.052 1368.31L83.944 1369.9L84.141 1372.34C85.709 1391.74 97.049 1420.68 121.867 1420.91L124.313 1420.93L126.047 1422.63C132.183 1428.66 138.883 1431.46 147.134 1431.46C158.421 1431.46 170.814 1426.11 182.801 1420.94L183.52 1420.63L183.67 1420.57C216.82 1408.3 253.763 1400.04 296.606 1395.34L299.065 1395.07L301.003 1396.58C301.644 1397.09 302.603 1397.37 303.637 1397.37C305.004 1397.37 306.342 1396.87 307.128 1396.07L308.357 1394.81L310.084 1394.41C313.052 1393.73 316.19 1393.4 319.679 1393.4C327.611 1393.4 335.837 1395.19 343.094 1396.77C348.941 1398.04 354.466 1399.25 358.577 1399.25C363.318 1399.25 363.993 1397.85 364.54 1395.56L365.522 1391.45L369.793 1391.03C385.161 1389.54 400.766 1387.32 415.855 1385.17C429.455 1383.23 443.517 1381.22 457.469 1379.74L471.306 1378.27L462.89 1389.19C452.876 1402.19 452.203 1423.03 461.254 1439.88L462.699 1442.57L461.316 1445.29C452.575 1462.49 454.961 1477.53 468.823 1492.62C481.459 1506.38 501.622 1517.66 517.824 1526.72C520.025 1527.95 522.169 1529.15 524.282 1530.35C565.666 1554.32 614.301 1580.83 667.834 1592.07ZM701.918 970.847C712.823 951.988 717.401 929.68 715.162 906.32C706.865 861.194 705.22 811.674 709.983 750.517C711.319 726.327 712.645 702.133 713.97 677.941C716.983 622.924 720.099 566.035 723.31 510.092L735.246 509.632C739.407 539.855 743.696 570.582 747.845 600.295C763.608 713.215 779.908 829.98 792.803 945.24C793.049 947.385 793.236 949.552 793.418 951.649C794.093 959.453 794.73 966.824 798.172 972.906L802.452 980.475L793.739 981.641C780.13 983.465 763.193 985.733 746.906 985.733C731.08 985.733 717.413 983.643 705.123 979.345L698.37 976.983L701.918 970.847Z" transform="translate(106.9999 -77.0026)" fill="#FFFFFF" fill-rule="evenodd" stroke="none"></path><g transform="translate(100 -54)"><path d="M0 0L1304.94 0L1304.94 1579.99L0 1579.99L0 0Z" transform="translate(0 0.001674564)" fill="none" stroke="none"></path><g><path d="M999.583 931.858C1092.6 919.895 1198 906.339 1268.44 957.565C1335.93 1020.74 1300.31 1131.14 1238.57 1185.72C1126.19 1291.87 829.644 1340.97 674.365 1358.82C678.875 1362.08 683.435 1365.28 688.075 1368.38C726.464 1350.78 725.924 1381.42 711.165 1383.26C719.144 1388.95 731.354 1395.98 745.346 1404.04C794.679 1432.46 866.172 1473.65 852.554 1513.71C866.344 1540.73 833.884 1559.9 810.644 1565.75C766.415 1581.15 718.394 1584.08 672.554 1574.43C620.415 1563.49 572.804 1538.44 527.214 1512.04C525.158 1510.88 523.024 1509.68 520.832 1508.46C487.014 1489.54 439.657 1463.05 461.924 1419.25C452.615 1401.92 451.724 1378.27 464.085 1362.24C434.754 1365.35 405.714 1370.69 376.355 1373.54C373.664 1384.8 361.753 1382.2 347.772 1379.16C337.846 1377 326.878 1374.61 317.424 1376.79C313.835 1380.46 307.275 1380.98 303.245 1377.83C265.655 1381.96 227.825 1389.36 191.755 1402.72L191.178 1402.97C169.963 1412.13 146.811 1422.12 127.785 1403.43C100.064 1403.18 86.0446 1373.06 84.1336 1349.43C-14.3054 1266.84 -6.19638 1127.82 9.51462 1013.53C25.5446 882.899 43.5536 749.554 90.8646 625.912C73.1246 619.539 56.1146 611.078 42.6646 598.794C26.8136 592.283 17.2546 571.637 12.9946 556.29C8.50462 547.681 8.41462 537.092 10.3746 528.138C9.12044 518.076 13.0896 508.028 16.9679 498.21C18.6897 493.851 20.3937 489.538 21.6146 485.289C36.0746 443.809 49.7546 402.082 65.1736 360.928C54.8352 352.292 61.9379 340.714 68.162 330.568C69.9745 327.613 71.7125 324.78 72.9236 322.176C82.9046 304.918 93.7946 287.956 105.575 271.634C165.775 159.221 272.314 100.858 400.455 101.144C435.644 79.985 449.775 37.7762 457.525 0C470.064 48.5722 440.185 112.353 386.955 127.424C394.594 138.367 400.545 150.494 407.445 161.891C443.144 218.925 528.335 243.393 589.964 216.521C625.234 197.835 633.144 154.838 631.865 118.835C615.755 136.004 601.884 92.1207 599.554 80.9701C596.335 65.4065 596.964 49.1829 602.884 34.3187C603.295 33.2844 604.674 33.4814 604.795 34.565C606.714 51.6357 610.515 68.5783 617.515 84.3586C622.495 82.1324 628.265 81.4035 633.785 81.3148C648.941 80.959 664.901 82.321 680.857 83.6826C691.399 84.5823 701.94 85.4818 712.245 85.8854C763.285 85.4914 794.285 100.031 812.205 148.987C855.625 275.604 873.855 409.598 891.144 541.751C909.915 674.032 901.695 808.253 921.835 940.317C945.869 938.766 972.189 935.381 999.583 931.858ZM368.655 113.23C259.804 128.36 162.745 197.736 115.144 295.462C105.785 313.035 97.6846 331.209 90.2746 349.658C131.445 356.18 171.394 368.778 209.605 384.873C212.223 386.372 216.399 388.057 221.101 389.954C234.164 395.225 251.288 402.134 250.355 411.253C273.705 384.362 293.424 354.791 313.254 325.407C318.565 323.5 306.274 347.349 300.323 358.894C298.835 361.781 297.744 363.898 297.424 364.651C279.275 399.265 258.464 433.682 231.134 461.992C233.681 464.502 238.497 467.255 243.68 470.219C253.472 475.819 264.577 482.169 264.185 489.041C347.525 539.889 425.825 598.282 500.015 661.325C502.545 659.847 505.884 659.68 508.665 662.161C599.915 737.714 607.924 862.39 596.875 971.355C687.835 985.648 721.724 943.449 702.505 857.465C696.897 818.237 699.212 778.556 701.511 739.15C701.66 736.602 701.808 734.055 701.955 731.508C709.005 617.628 713.894 503.6 722.125 389.798C724.105 361.519 728.915 333.681 735.165 306.081C735.375 304.623 737.594 305.076 737.644 306.406C740.804 333.632 742.495 360.918 741.314 388.341C766.335 364.218 805.355 344.32 840.265 340.665C825.674 278.224 817.935 158.118 774.564 113.486C763.545 103.685 748.884 100.553 734.615 98.3855C704.995 93.8839 675.405 89.1065 645.814 84.3685C648.165 85.8165 649.924 88.2692 650.174 91.7365C655.035 143.205 647.335 210.158 593.075 233.67C524.695 259.508 433.535 233.523 396.594 169.515C389.844 156.729 386.344 141.944 379.884 129.119C379.245 129.217 378.605 129.276 377.974 129.335C376.484 125.632 375.295 121.849 373.685 118.174C374.984 115.19 370.964 112.481 368.035 114.639C368.335 114.274 368.665 113.92 369.025 113.595C368.905 113.466 368.775 113.348 368.655 113.23ZM623.625 96.1396C622.375 94.0021 621.185 91.8153 620.045 89.599C623.905 89.7468 627.665 89.8847 631.464 90.5151C631.353 94.5158 631.46 98.5376 631.567 102.567C631.623 104.698 631.68 106.831 631.705 108.965C629.804 104.453 626.085 100.336 623.625 96.1396ZM23.6046 531.112C21.7336 549.089 31.4146 566.032 43.7336 579.3C64.0046 599.967 92.7846 608.921 120.125 616.486C188.564 635.132 256.984 653.819 325.325 672.8C351.094 680.129 377.185 686.344 402.655 694.589C414.115 698.244 428.605 699.15 434.554 710.872C434.617 710.702 434.732 710.373 434.892 709.918C436.6 705.038 443.366 685.71 445.205 693.801C437.855 713.551 439.685 735.843 442.825 756.322C445.665 774.84 448.884 793.398 449.865 812.144C449.312 831.612 447.621 851.057 445.93 870.504C442.595 908.844 439.261 947.187 444.655 985.707C465.415 970.853 463.325 940.553 469.075 918.203C471.695 904.944 474.585 891.774 477.605 878.604C479.464 870.468 493.035 872.241 492.415 880.574C490.894 901.23 490.605 921.906 490.115 942.612C490.439 945.874 490.109 951.192 489.74 957.13C488.926 970.229 487.925 986.344 493.355 990.051C503.538 994.779 506.966 974.923 509.211 961.915C509.885 958.012 510.452 954.726 511.064 952.905C515.455 932.495 519.535 912.026 523.304 891.498C524.634 884.298 536.365 886.12 536.105 893.202C535.275 915.553 534.304 937.893 533.405 960.244C533.316 962.4 533.148 964.735 532.971 967.181C532.027 980.281 530.853 996.559 540.535 1005.51C548.611 997.826 549.07 986.19 549.512 975.015C549.688 970.555 549.861 966.168 550.515 962.135C552.424 940.327 554.335 918.508 556.245 896.689C556.955 888.612 569.644 888.415 569.214 896.689C568.195 925.551 569.015 957.003 575.134 984.111C575.495 986.022 575.875 987.924 576.265 989.835C576.535 989.509 576.795 989.193 577.045 988.859C576.155 987.48 575.594 985.914 575.415 984.22C583.275 983.964 585.405 969.73 584.285 962.736C585.035 953.388 585.045 943.882 585.415 934.594C587.314 886.819 587.275 838.257 574.365 791.793C555.214 720.062 512.344 684.207 456.504 639.997C381.935 577.577 300.464 522.72 221.575 466.681C216.535 467.715 213.255 463.421 213.924 458.791C217.035 444.163 235.445 430.993 244.384 418.336C237.938 419.834 231.952 416.028 226.366 412.477C224.863 411.522 223.39 410.586 221.945 409.776C215.435 406.121 208.844 402.595 202.185 399.196C165.984 380.293 127.605 365.902 88.5936 353.904C70.2546 401.126 54.6146 449.226 37.7646 496.961C33.4546 508.368 31.0046 521.242 23.6046 531.112ZM813.445 922.477C815.222 933.694 817.004 944.948 814.984 955.969C843.415 950.729 871.924 945.961 900.655 942.74C879.945 805.436 892.125 665.56 870.775 528.098C863.924 472.562 854.054 417.557 844.174 362.513C807.615 368.946 772.265 381.702 740.915 401.413C740.355 418.828 739.505 436.234 738.535 453.639C744.955 482.383 750.554 511.165 756.094 540.066C778.685 660.832 795.734 782.582 811.174 904.412C811.531 910.395 812.487 916.43 813.445 922.477ZM728.085 888.12C718.655 837.005 718.915 785.213 722.945 733.538C727.375 653.395 731.674 573.233 736.275 493.1C756.245 638.137 777.535 783.006 793.814 928.506C794.974 938.632 794.795 949.349 799.905 958.382C771.665 962.165 741.564 965.977 714.105 956.373C726.155 935.539 730.405 911.82 728.085 888.12ZM43.3436 890.927C40.3836 909.495 37.5846 928.092 35.0246 946.71C71.0046 843.448 117.195 743.723 173.665 649.809C147.605 642.254 121.174 635.861 95.3646 627.469C80.4546 715.679 55.4446 802.116 43.3436 890.927ZM247.068 859.322C242.103 835.72 236.535 811.668 234.004 787.674C233.89 786.596 235.549 786.481 235.845 787.429C239.992 800.715 242.818 814.49 246.316 827.96C249.827 841.478 253.091 855.057 256.548 868.588C257.652 872.91 258.759 877.228 259.867 881.547C260.531 881.576 261.193 881.599 261.852 881.613C264.384 881.672 265.143 884.851 263.106 886.174C262.511 886.56 261.915 886.899 261.317 887.202C271.903 928.378 282.75 969.462 294.588 1010.32C308.382 1057.94 323.912 1104.98 336.324 1152.98C336.611 1154.09 336.097 1154.87 335.345 1155.21C341.801 1177.05 347.211 1199.18 353.113 1221.19C354.342 1225.77 347.574 1228.74 345.26 1224.45C341.697 1217.84 340.91 1208.81 339.166 1201.55C337.201 1193.37 335.334 1185.17 333.47 1176.97C330.505 1163.92 327.845 1150.71 325.652 1137.48C317.48 1116.95 310.162 1096.17 303.686 1075C289.183 1027.59 275.805 979.856 263.897 931.747C260.381 917.546 256.935 903.325 253.647 889.069C247.712 889.161 241.672 886.554 235.605 883.936C226.369 879.95 217.071 875.938 207.992 881.38C207.296 881.798 206.591 880.848 207.139 880.292C213.136 874.216 221.425 873.686 229.478 875.19C234.711 876.167 239.728 878.021 244.851 879.418C247.108 880.033 249.425 880.485 251.767 880.82C250.152 873.664 248.578 866.5 247.068 859.322ZM559.496 1126.24C557.047 1114.1 555.029 1101.89 553.193 1089.65C552.811 1087.11 552.384 1084.53 551.952 1081.93C550.389 1072.5 548.775 1062.76 549.127 1053.45C549.144 1052.97 549.812 1052.89 549.956 1053.34C553.768 1065.18 554.91 1078.29 557.328 1090.49C559.667 1102.28 562.237 1114.04 564.826 1125.78C570.142 1149.89 577.659 1173.63 582.209 1197.89C582.697 1200.49 579.186 1201.4 578.232 1198.97C569.121 1175.77 564.4 1150.56 559.496 1126.24ZM870.128 1063.06C848.523 1068.81 826.898 1074.3 805.12 1079.37C766.366 1088.39 727.622 1097.45 688.967 1106.88C669.673 1111.58 650.336 1116.15 631.082 1121C621.945 1123.31 612.867 1125.87 603.926 1128.84C599.464 1130.32 595.103 1132.02 590.743 1133.76C589.973 1134.07 589.211 1134.4 588.452 1134.73C585.446 1136.04 582.472 1137.34 579.119 1137.1C578.869 1137.08 578.713 1136.84 578.836 1136.61C581.033 1132.57 585.56 1130.66 589.557 1128.62C593.964 1126.36 598.556 1124.43 603.152 1122.59C613.361 1118.49 623.994 1115.48 634.599 1112.56C673.143 1101.95 712.018 1092.45 750.853 1082.94C789.873 1073.39 828.895 1064.24 868.433 1057C872.416 1056.28 874.139 1061.99 870.128 1063.06ZM98.9046 1348.21C97.4446 1326.52 101.094 1299.52 117.165 1283.35C153.945 1252.26 205.445 1242.48 251.405 1231.22C272.814 1226.99 294.515 1224.18 316.304 1222.79C318.058 1222.65 319.92 1222.63 321.814 1222.61C328.267 1222.55 335.093 1222.49 339.314 1217.6C342.125 1224.26 344.974 1230.91 347.825 1237.56C256.325 1225.57 65.4236 1267.22 118.884 1392.57C107.564 1380.3 100.064 1365.37 98.9046 1348.21ZM317.705 1270.51C337.625 1266.28 359.174 1278.7 370.835 1293.9C372.905 1296.59 374.745 1299.45 376.355 1302.43C368.585 1285.15 360.915 1267.83 353.384 1250.46C273.655 1243.39 138.594 1254.55 121.495 1350.07C120.255 1366.22 124.685 1385.19 137.835 1396.06C150.719 1406.82 165.805 1400.38 179.974 1394.34C184.477 1392.42 188.887 1390.54 193.105 1389.26C217.924 1380.61 243.435 1374.26 269.325 1369.99C268.855 1350.48 268.325 1330.67 263.935 1311.71C272.655 1294.46 289.205 1361.67 288.974 1367.18C292.545 1366.74 296.105 1366.34 299.685 1365.97C299.025 1346.22 298.935 1326.29 301.665 1306.7C301.755 1305.9 302.825 1305.73 303.105 1306.51C306.974 1316.34 310.045 1326.53 312.714 1336.76C316.355 1345.64 313.775 1358.46 324.094 1363.02C334.525 1367.37 346.035 1368.05 356.945 1370.99C359.094 1370.89 361.205 1370.63 363.224 1370.14C366.634 1369.31 365.785 1364.66 362.894 1364.18C363.144 1363.56 363.335 1362.85 363.545 1362.05C364.115 1362.01 364.695 1361.98 365.275 1361.94C363.776 1355.8 365.341 1349.59 366.923 1343.31C368.413 1337.4 369.917 1331.43 368.894 1325.41C367.964 1297.96 344.464 1276.74 317.705 1273.1C316.394 1272.84 316.424 1270.79 317.705 1270.51ZM551.295 1326.56C555.695 1318.61 561.935 1311.21 569.585 1306.21C562.855 1297.05 557.705 1287.03 553.495 1276.51C529.174 1300.3 487.174 1309.26 455.464 1321.23C457.906 1323.81 460.318 1326.39 462.7 1328.94C496.858 1365.49 524.932 1395.53 551.295 1326.56ZM385.795 1323.42C385.165 1324.75 384.265 1326.16 384.245 1327.75C383.605 1322.25 382.355 1316.81 380.455 1311.6C382.234 1315.54 384.015 1319.48 385.795 1323.42ZM683.945 1388.39C682.214 1388.79 680.474 1389.22 678.745 1389.68C667.515 1392.69 656.625 1396.84 646.035 1401.56C645.155 1401.95 644.435 1401.01 645.025 1400.28C651.844 1391.99 660.325 1384.36 669.765 1378.13C660.045 1370.75 650.665 1362.77 642.134 1354.19C630.365 1357.21 619.535 1361.89 608.634 1367.51C599.575 1367.5 630.275 1344.77 633.224 1344.62C624.634 1335.08 618.314 1324.1 610.984 1313.67C610.755 1314.57 610.335 1315.6 609.865 1316.33C603.365 1310.46 593.415 1311.56 585.634 1316.82C570.884 1321.7 565.405 1338 559.125 1350.08C540.915 1389.9 504.765 1392.69 476.285 1360.66C446.224 1415.6 519.314 1448.15 560.984 1464.67C593.785 1479.05 630.085 1495.07 663.045 1509.57C673.245 1514.19 683.355 1518.97 694.554 1520.67C724.995 1527 756.564 1526.03 787.045 1520.48C796.474 1518.77 805.814 1516.6 815.064 1514.1C820.375 1512.66 828.775 1511.65 832.285 1507.2C839.358 1481.69 775.138 1443.95 727.591 1416C708.395 1404.71 691.917 1395.03 683.945 1388.39ZM388.365 1359.95C390.984 1359.66 393.605 1359.35 396.224 1359.02C419.835 1356.07 443.314 1351.89 467.015 1349.78C460.504 1341.36 455.205 1332.21 450.205 1322.92C437.525 1326.92 424.775 1330.68 411.945 1334.16C402.964 1337.42 388.825 1340.86 384.445 1329.54C385.254 1337 384.695 1344.59 383.185 1351.94C386.545 1353.02 388.634 1356.49 388.365 1359.95ZM819.265 1544.47C713.234 1592.1 600.984 1539.06 510.564 1482.52C489.695 1470.87 462.245 1454.35 466.464 1426.92C481.835 1449.4 507.174 1462.21 531.495 1473.31C572.355 1491.78 613.484 1509.66 654.445 1527.9C658.314 1540.74 676.814 1541.23 687.995 1544.08C737.765 1553.73 791.265 1548.93 838.105 1529.68C835.394 1537.71 826.525 1541.4 819.265 1544.47Z" transform="translate(-0.0001181765 0.001674564)" fill="#000000" fill-rule="evenodd" stroke="none"></path></g></g></g><g transform="translate(225 0)"><g><g><path d="M151.977 0.371225C303.547 -7.08251 371.943 99.6354 376.367 147.301C379.438 180.389 359.889 218.526 359.889 248.092C359.889 263.184 378.367 295.585 369.765 317.581C350.618 366.54 310.078 420.875 258.418 420.875C206.758 420.875 139.525 435.162 82.4429 353.43C77.087 345.761 9.34322 302.176 2.76186 260.759C-13.6318 157.595 43.825 5.68978 151.977 0.371225Z" transform="translate(43.41895 82.30085)" fill="#FFFFFF" stroke="none"></path><path d="M243.95 0.0579795C235.82 -0.422021 226.67 2.05798 221.25 8.25798C204.68 2.74798 187.111 4.35798 172.95 15.208C160.07 10.429 144.9 14.718 136.75 25.858C120.81 21.988 103.08 31.808 97.941 47.388C87.441 48.548 78.31 59.508 81.48 69.658C68.7 62.618 53.46 74.268 51.98 87.908C46.25 91.208 40.76 95.108 37.85 101.258C35.67 105.868 35.31 110.679 36.68 115.138C30.13 119.498 24.06 125.008 22.781 133.098C22.05 137.728 22.88 142.298 25.12 145.988C14.05 154.648 9.00998 169.488 13.521 183.168C8.34998 188.708 4.21998 195.398 4.02098 203.168C3.87998 208.528 5.79998 214.078 9.39998 218.058C4.54998 225.208 0.499979 232.929 0.039979 241.768C-0.330021 248.848 1.87998 255.478 6.17998 260.679C-0.090021 271.598 2.16998 286.148 10.72 295.348C5.96998 306.648 9.13998 320.318 17.89 328.828C17.261 331.148 17.119 333.546 17.341 335.945C16.726 338.091 16.482 340.359 16.626 342.626C17.136 350.588 22.101 356.162 28.607 359.567L28.974 360.095C27.558 365.377 27.976 371.184 30.871 376.537C33.982 382.287 39.678 386.411 45.994 388.213C46.648 392.877 48.583 397.369 51.767 400.896C55.58 405.119 60.442 407.626 65.628 408.653C66.316 413.914 68.633 418.977 72.597 422.901C76.914 427.175 82.874 429.311 88.899 429.426C90.711 434.177 93.899 438.444 98.562 441.641C105.763 446.578 115.077 447.122 123.03 444.076C123.445 444.195 123.863 444.301 124.279 444.411C129.507 447.746 135.588 449.595 142.244 449.712C147.215 449.799 152.362 448.772 157.008 446.713C161.356 449.491 166.713 450.569 171.585 449.211C172.036 450.226 172.466 451.247 172.861 452.278C174.97 457.848 176.47 463.628 178.43 469.248C181.031 476.688 183.861 482.398 192.31 483.478C195.31 483.868 198.57 481.508 200.01 479.068C203.231 473.553 201.112 468.415 198.948 463.168C198.679 462.515 198.409 461.86 198.148 461.202L197.771 460.228C195.66 454.638 193.7 449.008 191.26 443.548C186.99 434.048 180.84 425.748 174.031 417.918C167.59 410.518 160.21 404.018 153.07 397.308C146.47 391.118 140.51 384.458 134.7 377.568C138.72 376.948 141.29 375.238 142.85 370.778C143.35 369.348 142.72 367.868 141.8 366.808C138.685 363.185 134.625 363.267 130.393 363.353C128.377 363.395 126.321 363.436 124.31 363.078C118.67 362.078 113.12 359.698 108.781 355.898C99.85 348.088 96.531 336.328 97.99 324.788C99.33 314.208 103.81 305.408 113.49 300.429C117.22 298.508 121.74 297.028 125.861 296.258C126.99 296.048 128.111 295.929 129.24 295.868C130.361 297.458 132.25 298.538 135.021 298.468C135.173 298.465 135.322 298.452 135.472 298.445C143.231 301.676 153.027 302.131 159.217 296.412C159.804 295.976 160.318 295.459 160.748 294.871C161.237 294.66 161.727 294.426 162.22 294.139C171.954 288.458 177.935 278.232 178.389 267.326C183.537 262.696 187.513 256.751 189.004 249.917C190.05 245.125 189.488 240.351 187.619 236.463C189.392 232.981 190.476 229.104 190.88 224.78C191.126 222.153 190.898 219.421 190.183 216.859C194.177 214.084 197.588 210.484 200.053 206.309C212.089 210.577 225.805 209.599 236.956 203.247C243.058 207.409 250.976 209.032 258.313 208.107C263.337 207.473 268.033 205.705 272.324 203.115C276.341 204.687 280.68 205.518 284.892 205.66C290.581 205.853 296.109 204.122 301.099 201.492L301.546 201.242C303.711 201.355 305.888 201.208 308.037 200.829C311.047 203.148 314.562 204.823 318.097 205.597C325.956 207.319 333.962 205.362 340.316 200.826C350.829 207.227 365.415 206.633 375.855 200.086C385.171 205.841 397.386 205.358 406.824 199.908C411.173 203.941 416.635 206.727 422.51 207.874L422.04 211.179C420.74 220.378 419.75 229.578 419.54 238.868C419.12 257.679 420.271 276.478 422.34 295.168C424.111 311.168 426.941 327.118 428.57 343.058C428.521 343.818 428.48 344.568 428.48 345.328C428.47 346.788 428.72 348.118 429.14 349.318C430.45 365.798 430.16 382.268 425.72 398.778C413.47 444.398 372.88 482.448 324.55 479.728C321.75 479.568 318.95 479.348 316.15 479.068C314.63 478.908 313.111 478.748 311.59 478.568L309.66 478.328C309.64 478.318 309.62 478.318 309.6 478.318L309.5 478.308L309.3 478.278L308.65 478.198C302.1 477.278 295.57 476.108 289.12 474.638C282.88 473.208 276.89 471.278 270.85 469.198L270.4 469.046C266.812 467.853 263.471 467.215 259.65 467.858C259.32 467.908 258.99 468.008 258.65 468.058C258.611 468.058 258.59 468.058 258.55 468.068L258.521 468.068L257.947 468.107C257.184 468.155 256.43 468.184 255.67 468.168L255.446 468.168C251.973 468.233 249.964 471.645 250.611 474.818C251.771 480.518 254.39 485.358 259.43 488.498C263.934 491.302 269.415 492.909 274.613 494.302L276.63 494.838C289.17 498.158 302.13 500.088 315.031 501.378C325.31 502.398 335.16 502.768 345.4 501.268C359.63 499.188 373.57 494.208 385.98 486.938C411.07 472.228 430.31 448.648 440.89 421.679C445.052 411.088 447.74 399.936 448.971 388.627C449.922 388.607 450.915 388.48 451.956 388.203C464.347 384.904 471.387 371.857 469.548 360.099C472.63 356.941 474.972 353.02 476.355 348.764C477.351 345.697 477.756 342.636 477.649 339.643C480.898 337.761 483.714 335.061 485.806 331.436C488.741 326.35 489.548 320.727 488.613 315.362C495.202 309.052 498.846 299.369 497.636 290.407C502.179 286.063 505.175 280.188 505.729 273.627C506.223 267.767 504.542 262.119 501.345 257.514C503.052 253.181 503.199 248.419 502.044 243.911C504.681 236.832 505.196 228.871 501.738 221.891C500.79 219.981 499.527 218.339 498.034 217.029C498.181 216.192 498.345 215.343 498.54 214.458L498.652 213.929C499.755 208.5 499.035 204.181 497.031 198.998C495.445 194.895 495.772 191.03 496.113 186.994C496.256 185.305 496.401 183.587 496.41 181.808C496.441 175.348 493.59 168.108 488.07 164.998C489.54 155.868 486.41 146.198 479.2 140.818C478.15 131.658 474.14 122.998 466.25 118.968C467 110.988 466.31 102.868 462.16 95.788C458.59 89.679 452.771 85.058 446.07 83.288C444.2 66.408 428.37 52.938 411.6 52.398C407.56 39.679 393.2 30.938 380 32.988C369.3 19.078 351.06 12.708 334.26 17.518C329.41 11.598 321.91 8.08798 314.34 6.86798C307.386 5.75303 300.577 6.61988 293.756 7.48836C288.463 8.16219 283.163 8.83701 277.781 8.58798C266.031 8.04798 255.76 0.757979 243.95 0.0579795ZM143.031 329.178C137.79 321.748 130.33 313.628 120.38 314.168C114.08 314.508 106.79 318.978 107.111 325.948C107.13 326.458 107.771 326.788 108.15 326.378C110.91 323.438 114.67 322.138 118.49 322.758C114.6 324.518 110.861 328.388 112.47 332.828C113.48 335.608 116.46 337.978 119.611 336.878C122.05 336.018 123.84 334.418 124.66 331.928C124.662 331.921 124.675 331.878 124.696 331.814C124.777 331.556 124.966 330.955 124.95 330.898C125.14 330.508 125.37 330.128 125.59 329.758L125.888 329.252C126.184 328.75 126.482 328.261 126.82 327.788C128.83 330.188 130.33 333.088 131.65 335.828C135.33 343.508 147.95 336.148 143.031 329.178Z" transform="translate(-33.00008 7.99922)" fill="#000000" fill-rule="evenodd" stroke="none"></path></g></g><g transform="translate(159 186)"><g><path d="M182.288 0.0155884L181.632 0.00116045C175.238 -0.058867 169.29 2.22009 163.402 4.47582C162.856 4.68524 162.31 4.89445 161.764 5.10157L157.768 6.60212C152.904 8.40184 147.112 10.2273 142.402 8.42559L142.139 8.33001C136.342 6.3286 129.649 10.9886 128.125 16.5336C126.412 22.7656 130.226 28.9356 136.231 30.8106C148.625 34.6806 161.314 28.7727 172.536 23.5479C172.762 23.4425 172.988 23.3373 173.213 23.2325L176.458 21.7337C177.628 21.1854 178.852 20.5712 180.116 19.9374C188.382 15.7891 198.323 10.8005 205.975 17.9646C206.38 18.3446 207.063 17.9716 206.915 17.4176C204.051 6.74259 193.016 0.387588 182.288 0.0155884ZM50.3878 7.76789C57.2457 7.44005 63.5611 9.38286 69.9137 11.3371C73.0948 12.3157 76.2852 13.2972 79.5578 13.9979C88.6218 15.9399 97.5518 14.7739 106.367 12.3039C120.673 8.29489 126.587 30.1949 112.476 34.4629C102.2 37.5709 91.3798 37.7869 80.8348 36.1849C71.4678 34.7609 63.6158 30.2009 54.6848 27.5459C47.0203 25.2685 38.0039 26.215 29.9097 27.2872L26.7678 27.7099C22.0978 28.3389 17.4028 28.9699 12.7788 29.8829C8.76676 30.6759 4.76176 32.1269 0.666764 32.2949C0.201764 32.3149 -0.192236 31.7109 0.100764 31.3079C4.85765 24.7773 14.0258 19.6244 21.3185 16.1876L21.8128 15.9559C30.8148 11.7589 40.3648 8.24589 50.3878 7.76789ZM46.6158 55.6982L46.6171 55.9235C46.704 62.3861 51.0714 75.5333 59.5239 75.5333C67.8879 75.5333 69.6306 61.6522 69.3645 55.3016L69.3435 54.8852C68.7408 44.6706 65.2589 34.7618 59.5239 34.7618C50.3438 34.7618 46.6298 49.3214 46.6158 55.6982ZM181.772 55.9235L181.774 55.6982C181.76 49.3214 178.046 34.7618 168.866 34.7618C163.274 34.7618 159.824 44.1814 159.097 54.1198L159.046 54.8852C158.684 61.0213 160.314 75.5333 168.866 75.5333C177.318 75.5333 181.685 62.3861 181.772 55.9235ZM140.748 98.0392C148.871 86.6599 137.365 75.9568 129.814 71.3667C127.836 69.9468 129.406 65.243 133.633 65.97C172.03 72.567 152.135 138.708 103.112 102.412C97.2752 97.7041 104.343 87.3335 110.634 91.3657C110.953 91.6104 111.287 91.869 111.636 92.1386C118.704 97.6029 131.635 107.601 140.748 98.0392ZM137.872 165.917C131.085 168.585 123.066 169.215 116.061 166.942C109.362 164.768 103.28 159.929 99.5997 153.844C96.3217 148.424 94.9527 141.992 96.89 135.579C96.9827 135.272 97.2834 135.076 97.5734 135C99.1584 136.443 100.138 137.876 101.116 139.302C102.765 141.706 104.419 144.086 106.688 146.142C109.989 149.132 114.438 151.561 118.853 152.362C123.175 153.148 127.599 152.453 131.47 150.384C133.824 149.127 135.727 147.446 137.611 145.757C139.663 143.918 141.683 142.051 144.509 141.012C146.774 140.18 149.153 140.882 150.981 142.275C152.945 143.771 154.358 146.113 154.279 148.562C154.158 152.356 152.497 155.521 150.088 158.132C146.83 161.662 142.223 164.206 137.872 165.917Z" transform="translate(41.00024 65.00041)" fill="#000000" fill-rule="evenodd" stroke="none"></path></g></g><g transform="translate(123 338)"><g><path d="M57.4005 3.42841C64.6505 1.69041 84.6205 -2.68059 95.7415 2.32841C108.247 -2.15859 132.409 2.27041 146.695 13.1914C159.748 23.1704 164.542 47.8034 152.83 49.3394C146.82 50.1278 142.779 48.1512 138.106 45.8656C135.181 44.4347 132.008 42.8828 127.95 41.8124C115.573 38.5464 100.237 36.5274 93.4465 32.7924C84.1465 38.0664 73.6755 39.4194 63.7495 40.9694C58.8906 41.7217 53.7682 43.3334 48.6268 44.951C40.8306 47.404 32.9907 49.8707 25.9595 49.3754C24.2265 50.1684 12.4445 45.3134 18.3495 29.8904C23.5895 16.2054 40.5455 7.47041 57.4005 3.42841ZM106.754 85.109C107.748 94.2859 109.415 109.689 117.761 107.654C124.018 106.128 136.982 95.5207 144.652 91.4247C155.51 88.3318 159.242 93.9786 157.63 102.754C156.863 106.93 146.098 123.977 142.275 128.084C125.474 146.137 97.8637 153.49 74.2653 148.708C50.9963 146.91 -1.44122 127.033 0.0303418 120.343C3.35502 105.228 14.2105 108.644 24.5514 111.898C26.9282 112.646 29.2777 113.385 31.5023 113.889C41.6163 115.754 52.7443 116.403 62.3633 116.437C75.9374 113.479 73.4727 92.1514 72.5501 84.1674C72.4472 83.2774 72.3635 82.5532 72.3233 82.0387C71.7057 74.129 76.2826 61.4116 88.4583 60.7567C100.634 60.1018 105.437 75.2808 106.288 81.1667C106.443 82.2379 106.589 83.588 106.754 85.109Z" transform="translate(112.1728 28.99979)" fill="#000000" fill-rule="evenodd" stroke="none"></path></g></g><g transform="translate(47 241)"><g><path d="M316.813 3.10942C324.946 1.29242 394.509 -7.19658 396.465 14.9734C398.027 18.5324 397.593 37.5744 390.851 31.9324C373.772 44.8104 378.699 69.5144 366.274 85.8844C349.797 109.469 295.046 106.723 288.055 38.6864C281.114 35.9151 274.999 37.0109 268.751 38.1307C265.935 38.6352 263.093 39.1447 260.135 39.3074C269.752 111.531 152.497 141.921 143.304 53.8704C141.966 42.4674 138.517 43.4774 128.359 40.2094C126.53 39.8254 124.439 39.4604 122.435 38.8834C119.102 39.9934 117.307 38.4075 114.671 36.0782C106.929 29.2369 91.9299 15.9829 9.37509 45.7834C9.28609 50.3874 6.06709 52.6614 2.84509 50.4264C-18.3829 21.4114 85.4011 13.5744 108.135 14.3954C112.562 13.1234 116.74 12.4004 120.176 13.7484C138.328 -0.852581 224.917 -9.07258 250.63 19.5904C267.763 24.9805 282.206 18.1835 296.811 11.31C303.36 8.22787 309.942 5.13039 316.813 3.10942ZM368.291 12.4564C368.281 12.4694 368.269 12.4804 368.259 12.4934C368.182 12.4464 368.106 12.3984 368.027 12.3524C368.114 12.3884 368.206 12.4194 368.291 12.4564ZM351.985 88.3954C336.977 95.6234 316.039 84.9624 305.948 73.7954C302.275 69.7294 299.441 58.0964 300.854 50.7184C304.681 30.7374 319.061 18.7454 334.242 14.6504C355.286 8.97242 376.464 23.3564 373.995 40.3304C371.654 56.4174 368.107 79.7524 351.985 88.3954ZM210.244 96.4944C231.144 90.8474 248.631 71.7884 249.834 50.0134C250.295 40.7774 247.593 31.6544 240.983 25.3334C218.401 18.1694 173.188 13.7214 154.605 39.8164C149.88 46.4504 151.641 54.1844 152.39 56.7184C159.928 82.2194 176.57 105.89 210.244 96.4944Z" transform="translate(1.000312 17.99998)" fill="#000000" fill-rule="evenodd" stroke="none"></path></g></g></g></g></svg>